<svg xmlns="http://www.w3.org/2000/svg" viewBox="0 0 512 512"><defs><style>.cls-1{fill:#fbc102;}</style></defs><g id="Layer_2" data-name="Layer 2"><g id="Layer_1-2" data-name="Layer 1"><path class="cls-1" d="M501.62,92.11,267.24,2a32,32,0,0,0-22.47,0L10.38,92.11A16,16,0,0,0,0,107.09V144a16,16,0,0,0,16,16H496a16,16,0,0,0,16-16V107.09A16,16,0,0,0,501.62,92.11ZM64,192V352H48a16,16,0,0,0-16,16v48H480V368a16,16,0,0,0-16-16H448V192H384V352H288V192H224V352H128V192ZM496,448H16A16,16,0,0,0,0,464v32a16,16,0,0,0,16,16H496a16,16,0,0,0,16-16V464A16,16,0,0,0,496,448Z"/></g></g></svg>