<svg xmlns="http://www.w3.org/2000/svg" viewBox="0 0 640 448"><defs><style>.cls-1{fill:#fbc102;}</style></defs><g id="Layer_2" data-name="Layer 2"><g id="Layer_1-2" data-name="Layer 1"><path class="cls-1" d="M204.8,166.4a32,32,0,1,0-51.2,38.4l38.1,50.8a16,16,0,0,1-1.5,20.9l-12.8,12.8a15.9,15.9,0,0,1-23.6-1.1L64,180.4V32A32,32,0,0,0,0,32V250.4a48.05,48.05,0,0,0,10.5,30L114.6,414.7A59.69,59.69,0,0,1,125,436.4,15.67,15.67,0,0,0,140.3,448H272a16,16,0,0,0,16-16V320a128.2,128.2,0,0,0-25.6-76.8l-57.6-76.8ZM608,0a32,32,0,0,0-32,32V180.4L486.2,288.2a16.06,16.06,0,0,1-23.6,1.1l-12.8-12.8a16,16,0,0,1-1.5-20.9l38.1-50.8a32,32,0,0,0-51.2-38.4l-57.6,76.8A128.2,128.2,0,0,0,352,320V432a16,16,0,0,0,16,16H499.7A15.76,15.76,0,0,0,515,436.4a59.69,59.69,0,0,1,10.4-21.7L629.5,280.4a48.05,48.05,0,0,0,10.5-30V32A32,32,0,0,0,608,0Z"/></g></g></svg>