<svg xmlns="http://www.w3.org/2000/svg" viewBox="0 0 640 512"><defs><style>.cls-1{fill:#fbc102;}</style></defs><g id="Layer_2" data-name="Layer 2"><g id="Layer_1-2" data-name="Layer 1"><path class="cls-1" d="M272,191.92a32.09,32.09,0,0,0-32,32v80a16,16,0,1,1-32,0V227.37A95.86,95.86,0,0,1,221.69,178L299.44,48.39a31.8,31.8,0,0,0-53.27-34.7c-.2.23-.62.21-.79.48L128.12,190.07A95.66,95.66,0,0,0,112,243.3v80.23l-90.12,30A32,32,0,0,0,0,383.92v96c0,10.82,8.52,32,32,32a32,32,0,0,0,8.06-1l179.19-46.62A117.35,117.35,0,0,0,304,351.92v-128A32.09,32.09,0,0,0,272,191.92ZM618.12,353.65l-90.12-30V243.38a95.66,95.66,0,0,0-16.12-53.23L394.62,14.26c-.18-.27-.59-.24-.79-.48a31.8,31.8,0,0,0-53.27,34.7l77.75,129.59A95.86,95.86,0,0,1,432,227.46V304a16,16,0,0,1-32,0V224a32,32,0,0,0-64,0V352a117.32,117.32,0,0,0,84.75,112.34L599.94,511a32.16,32.16,0,0,0,8.06,1c23.48,0,32-21.18,32-32V384a32,32,0,0,0-21.88-30.35Z"/></g></g></svg>