<svg xmlns="http://www.w3.org/2000/svg" viewBox="0 0 575.97 512.02"><defs><style>.cls-1{fill:#fbc102;}</style></defs><g id="Layer_2" data-name="Layer 2"><g id="Layer_1-2" data-name="Layer 1"><path class="cls-1" d="M160,176h64v64a16,16,0,0,0,16,16h64a16,16,0,0,0,16-16V176h64a16,16,0,0,0,16-16V96a16,16,0,0,0-16-16H320V16A16,16,0,0,0,304,0H240a16,16,0,0,0-16,16V80H160a16,16,0,0,0-16,16v64A16,16,0,0,0,160,176ZM568.2,336.31a39.92,39.92,0,0,0-55.79-8.58l-.14.11L392.6,416H272a16,16,0,0,1,0-32h78.24c16,0,30.75-10.87,33.37-26.61a32.06,32.06,0,0,0-26.3-36.94A32.64,32.64,0,0,0,352,320H192a117.66,117.66,0,0,0-74.12,26.25L71.36,384H16A16.11,16.11,0,0,0,0,400v96a16.11,16.11,0,0,0,16,16H363a104.78,104.78,0,0,0,61.7-20.27l135-99.57A40,40,0,0,0,568.2,336.31Z"/></g></g></svg>