<svg xmlns="http://www.w3.org/2000/svg" viewBox="0 0 352 511.99"><defs><style>.cls-1{fill:#fbc102;}</style></defs><g id="Layer_2" data-name="Layer 2"><g id="Layer_1-2" data-name="Layer 1"><path class="cls-1" d="M176,80a96.1,96.1,0,0,0-96,96,16,16,0,0,0,32,0,64.07,64.07,0,0,1,64-64,16,16,0,0,0,0-32ZM96.06,459.17A15.9,15.9,0,0,0,98.74,468l24.51,36.84A16,16,0,0,0,136.57,512h78.85a16,16,0,0,0,13.32-7.14L253.25,468a16.08,16.08,0,0,0,2.68-8.84L256,416H96ZM176,0C73.72,0,0,83,0,176A175,175,0,0,0,43.56,291.78c16.64,19,42.74,58.8,52.42,92.16V384h48v-.12a47.31,47.31,0,0,0-2.15-14.07C136.24,352,119,305,79.66,260.14A127.6,127.6,0,0,1,48.05,176c-.2-73.64,59.67-128,128-128a127.91,127.91,0,0,1,96.35,212.14c-39.11,44.61-56.42,91.47-62.1,109.46A47.56,47.56,0,0,0,208,383.9v.1h48V384c9.68-33.37,35.78-73.18,52.42-92.16A175.92,175.92,0,0,0,176,0Z"/></g></g></svg>