<svg xmlns="http://www.w3.org/2000/svg" viewBox="0 0 512 512"><defs><style>.cls-1{fill:#fbc102;}</style></defs><g id="Layer_2" data-name="Layer 2"><g id="Layer_1-2" data-name="Layer 1"><path class="cls-1" d="M503.47,360.25c-1.56-.82-32.39-16.89-76.78-25.81,64.25-75.12,84.05-161.67,84.93-165.64A16,16,0,0,0,496,149.33a15.56,15.56,0,0,0-3.44.38c-3.88.85-86.54,19.59-160.58,79.76,0-1.46,0-2.93,0-4.4,0-118.79-60-213.72-62.53-217.7a16,16,0,0,0-26.93,0C240,11.35,180,106.28,180,225.07c0,1.47,0,2.94,0,4.4-74-60.16-156.69-78.9-160.58-79.76a16,16,0,0,0-19,19.09c.88,4,20.68,90.52,84.93,165.64-44.39,8.92-75.21,25-76.78,25.81a16,16,0,0,0,0,28.29C11,389.83,69.27,420.26,142,420.26c6.14,0,12-.1,17.5-.31-11.37,22.23-16.52,38.31-16.81,39.22a16,16,0,0,0,20,20.1c1.83-.57,37.72-12,77.3-39.29v64a8,8,0,0,0,8,8h16a8,8,0,0,0,8-8V440c39.58,27.3,75.47,38.71,77.3,39.29a16,16,0,0,0,20-20.1c-.29-.91-5.45-17-16.81-39.22q8.31.32,17.5.31c72.72,0,131-30.43,133.49-31.72a16,16,0,0,0,0-28.3Z"/></g></g></svg>