<svg xmlns="http://www.w3.org/2000/svg" viewBox="0 0 640.03 512"><defs><style>.cls-1{fill:#fbc102;}</style></defs><g id="Layer_2" data-name="Layer 2"><g id="Layer_1-2" data-name="Layer 1"><path class="cls-1" d="M128,96A48,48,0,1,0,80,48,48,48,0,0,0,128,96Zm384,0a48,48,0,1,0-48-48A48,48,0,0,0,512,96Zm125.7,372.1-44-110-41.09,46.4-2,18.2,27.7,69.2A32,32,0,0,0,608,512a31.09,31.09,0,0,0,11.9-2.3,32,32,0,0,0,17.8-41.6Zm-34.2-209.8L585,178.1a64.76,64.76,0,0,0-37.5-44.9,61.7,61.7,0,0,0-56.1,3.3,109.56,109.56,0,0,0-48.1,59.4L432,229.8,416,240V144a16,16,0,0,0-16-16H240a16,16,0,0,0-16,16v96l-16.1-10.2-11.3-33.9a108.78,108.78,0,0,0-48.1-59.4,61.72,61.72,0,0,0-56.1-3.3,64.81,64.81,0,0,0-37.5,44.9l-18.4,80.2A64.07,64.07,0,0,0,50.91,315l67.2,75.9,10.1,92.6A32,32,0,0,0,160,512c1.2,0,2.3-.1,3.5-.2a32,32,0,0,0,28.3-35.3l-10.1-92.8a63.91,63.91,0,0,0-15.6-35l-43.3-49,17.6-70.3,6.8,20.4c4.1,12.5,11.9,23.4,24.5,32.6l51.1,32.5c4.6,2.9,12.1,4.6,17.2,5H400c5.1-.4,12.6-2.1,17.2-5l51.1-32.5c12.61-9.2,20.4-20,24.5-32.6l6.8-20.4,17.6,70.3-43.29,49a63.86,63.86,0,0,0-15.61,35l-10.1,92.8a32,32,0,0,0,28.3,35.3c1.2.1,2.3.2,3.5.2a32,32,0,0,0,31.8-28.5l10.1-92.6,67.2-75.9A64.36,64.36,0,0,0,603.51,258.3ZM46.31,358.1l-44,110a32,32,0,0,0,59.4,23.8l27.7-69.2-2-18.2Z"/></g></g></svg>